<svg width="24" height="24" viewBox="0 0 24 24" fill="none" xmlns="http://www.w3.org/2000/svg">
<g id="navigation">
<path id="Vector" d="M3.25 10.75C2.915 10.75 2.62292 10.6254 2.37375 10.3763C2.12458 10.1271 2 9.835 2 9.5V3.25C2 2.915 2.12458 2.62292 2.37375 2.37375C2.62292 2.12458 2.915 2 3.25 2H9.5C9.835 2 10.1271 2.12458 10.3763 2.37375C10.6254 2.62292 10.75 2.915 10.75 3.25V9.5C10.75 9.835 10.6254 10.1271 10.3763 10.3763C10.1271 10.6254 9.835 10.75 9.5 10.75H3.25ZM3.25 22C2.915 22 2.62292 21.8754 2.37375 21.6263C2.12458 21.3771 2 21.085 2 20.75V14.5C2 14.165 2.12458 13.8729 2.37375 13.6237C2.62292 13.3746 2.915 13.25 3.25 13.25H9.5C9.835 13.25 10.1271 13.3746 10.3763 13.6237C10.6254 13.8729 10.75 14.165 10.75 14.5V20.75C10.75 21.085 10.6254 21.3771 10.3763 21.6263C10.1271 21.8754 9.835 22 9.5 22H3.25ZM14.5 10.75C14.165 10.75 13.8729 10.6254 13.6237 10.3763C13.3746 10.1271 13.25 9.835 13.25 9.5V3.25C13.25 2.915 13.3746 2.62292 13.6237 2.37375C13.8729 2.12458 14.165 2 14.5 2H20.75C21.085 2 21.3771 2.12458 21.6263 2.37375C21.8754 2.62292 22 2.915 22 3.25V9.5C22 9.835 21.8754 10.1271 21.6263 10.3763C21.3771 10.6254 21.085 10.75 20.75 10.75H14.5ZM14.5 22C14.165 22 13.8729 21.8754 13.6237 21.6263C13.3746 21.3771 13.25 21.085 13.25 20.75V14.5C13.25 14.165 13.3746 13.8729 13.6237 13.6237C13.8729 13.3746 14.165 13.25 14.5 13.25H20.75C21.085 13.25 21.3771 13.3746 21.6263 13.6237C21.8754 13.8729 22 14.165 22 14.5V20.75C22 21.085 21.8754 21.3771 21.6263 21.6263C21.3771 21.8754 21.085 22 20.75 22H14.5ZM3.25 9.5H9.5V3.25H3.25V9.5ZM14.5 9.5H20.75V3.25H14.5V9.5ZM14.5 20.75H20.75V14.5H14.5V20.75ZM3.25 20.75H9.5V14.5H3.25V20.75Z" fill="#555555"/>
</g>
</svg>
